<?xml version="1.0" standalone="no"?>
<!DOCTYPE svg PUBLIC "-//W3C//DTD SVG 20010904//EN"
 "http://www.w3.org/TR/2001/REC-SVG-20010904/DTD/svg10.dtd">
<svg version="1.0" xmlns="http://www.w3.org/2000/svg"
 width="700.000000pt" height="700.000000pt" viewBox="0 0 700.000000 700.000000"
 preserveAspectRatio="xMidYMid meet">
<metadata>
Created by potrace 1.14, written by Peter Selinger 2001-2017
</metadata>
<g transform="translate(0.000000,700.000000) scale(0.100000,-0.100000)"
fill="#000000" stroke="none">
<path d="M3901 5440 c-12 -27 -7 -1540 6 -1548 6 -4 183 -7 392 -6 l381 1 0
-366 c-1 -201 -1 -377 0 -391 l0 -26 390 0 390 0 0 51 c1 68 1 1453 0 1488 l0
27 -390 0 -390 0 0 48 c0 26 -1 201 -3 390 l-2 344 -383 1 c-333 2 -385 0
-391 -13z"/>
<path d="M1549 3806 c-3 -365 0 -2258 4 -2262 6 -6 3898 -6 3904 0 6 5 5 767
0 773 -3 2 -178 4 -391 3 l-386 0 0 208 c-1 114 -2 290 -3 392 l-2 184 -390 0
-390 0 0 392 1 391 -1173 0 -1173 0 -1 -81z"/>
</g>
</svg>
